<svg viewBox="0 0 24 24" version="1.1" xmlns="http://www.w3.org/2000/svg" xmlns:xlink="http://www.w3.org/1999/xlink" id="el_HyvDEbcnQ"><style>@-webkit-keyframes el_H14vP4Zc2Q_Animation{0%{opacity: 0.3;}14.29%{opacity: 0.3;}28.57%{opacity: 0.65;}42.86%{opacity: 1;}57.14%{opacity: 1;}71.43%{opacity: 0.3;}85.71%{opacity: 0.3;}100%{opacity: 0.3;}}@keyframes el_H14vP4Zc2Q_Animation{0%{opacity: 0.3;}14.29%{opacity: 0.3;}28.57%{opacity: 0.65;}42.86%{opacity: 1;}57.14%{opacity: 1;}71.43%{opacity: 0.3;}85.71%{opacity: 0.3;}100%{opacity: 0.3;}}@-webkit-keyframes el_BJQwPNZ92X_Animation{0%{opacity: 0.3;}14.29%{opacity: 0.65;}28.57%{opacity: 1;}42.86%{opacity: 1;}57.14%{opacity: 1;}71.43%{opacity: 1;}85.71%{opacity: 0.3;}100%{opacity: 0.3;}}@keyframes el_BJQwPNZ92X_Animation{0%{opacity: 0.3;}14.29%{opacity: 0.65;}28.57%{opacity: 1;}42.86%{opacity: 1;}57.14%{opacity: 1;}71.43%{opacity: 1;}85.71%{opacity: 0.3;}100%{opacity: 0.3;}}@-webkit-keyframes el_SkGww4-5hm_Animation{0%{opacity: 0.3;}14.29%{opacity: 1;}28.57%{opacity: 1;}42.86%{opacity: 1;}57.14%{opacity: 1;}71.43%{opacity: 1;}85.71%{opacity: 1;}100%{opacity: 0.3;}}@keyframes el_SkGww4-5hm_Animation{0%{opacity: 0.3;}14.29%{opacity: 1;}28.57%{opacity: 1;}42.86%{opacity: 1;}57.14%{opacity: 1;}71.43%{opacity: 1;}85.71%{opacity: 1;}100%{opacity: 0.3;}}#el_HyvDEbcnQ *{-webkit-animation-duration: 2.8s;animation-duration: 2.8s;-webkit-animation-iteration-count: infinite;animation-iteration-count: infinite;-webkit-animation-timing-function: cubic-bezier(0, 0, 1, 1);animation-timing-function: cubic-bezier(0, 0, 1, 1);}#el_SJxDvEb9n7{stroke: none;stroke-width: 1;fill: none;}#el_SkGww4-5hm{fill: #FFFFFF;-webkit-animation-name: el_SkGww4-5hm_Animation;animation-name: el_SkGww4-5hm_Animation;}#el_BJQwPNZ92X{fill: #FFFFFF;opacity: 0.3;-webkit-animation-name: el_BJQwPNZ92X_Animation;animation-name: el_BJQwPNZ92X_Animation;}#el_H14vP4Zc2Q{fill: #FFFFFF;opacity: 0.3;-webkit-animation-name: el_H14vP4Zc2Q_Animation;animation-name: el_H14vP4Zc2Q_Animation;}#el_H1BwD4Wc3Q{fill: #FFFFFF;}</style>
    <!-- Generator: Sketch 52.3 (67297) - http://www.bohemiancoding.com/sketch -->
    <title>ic_cast0_white_24dp</title>
    <desc>Created with Sketch.</desc>
    <g id="el_SJxDvEb9n7" fill-rule="evenodd">
        <g id="el_HJ-wwEZq2X">
            <path d="M1,18 L1,21 L4,21 C4,19.34 2.66,18 1,18 L1,18 Z" id="el_SkGww4-5hm"/>
            <path d="M1,14 L1,16 C3.76,16 6,18.24 6,21 L8,21 C8,17.13 4.87,14 1,14 L1,14 Z" id="el_BJQwPNZ92X"/>
            <path d="M1,10 L1,12 C5.97,12 10,16.03 10,21 L12,21 C12,14.92 7.07,10 1,10 L1,10 Z" id="el_H14vP4Zc2Q"/>
            <path d="M21,3 L3,3 C1.9,3 1,3.9 1,5 L1,8 L3,8 L3,5 L21,5 L21,19 L14,19 L14,21 L21,21 C22.1,21 23,20.1 23,19 L23,5 C23,3.9 22.1,3 21,3 L21,3 Z" id="el_H1BwD4Wc3Q"/>
            <rect id="el_H1IPDNbqh7" x="0" y="0" width="24" height="24"/>
        </g>
    </g>
</svg>