<?xml version="1.0" encoding="UTF-8"?>
<svg width="24px" height="24px" viewBox="0 0 24 24" version="1.1" xmlns="http://www.w3.org/2000/svg" xmlns:xlink="http://www.w3.org/1999/xlink">
    <!-- Generator: Sketch 52.3 (67297) - http://www.bohemiancoding.com/sketch -->
    <title>ic_cast_connected_white_24dp</title>
    <desc>Created with Sketch.</desc>
    <g id="ic_cast_connected_white_24dp" stroke="none" stroke-width="1" fill="none" fill-rule="evenodd">
        <g id="ic_remove_circle_white_24dp">
            <path d="M1,18 L1,21 L4,21 C4,19.34 2.66,18 1,18 L1,18 Z M1,14 L1,16 C3.76,16 6,18.24 6,21 L8,21 C8,17.13 4.87,14 1,14 L1,14 Z M19,7 L5,7 L5,8.63 C8.96,9.91 12.09,13.04 13.37,17 L19,17 L19,7 L19,7 Z M1,10 L1,12 C5.97,12 10,16.03 10,21 L12,21 C12,14.92 7.07,10 1,10 L1,10 Z M21,3 L3,3 C1.9,3 1,3.9 1,5 L1,8 L3,8 L3,5 L21,5 L21,19 L14,19 L14,21 L21,21 C22.1,21 23,20.1 23,19 L23,5 C23,3.9 22.1,3 21,3 L21,3 Z" id="cast-on" fill="#FFFFFF"></path>
            <rect id="bounds" x="0" y="0" width="24" height="24"></rect>
        </g>
    </g>
</svg>